<svg aria-label="SVD as rotate, stretch, rotate" role="img" viewBox="0 0 680 230" width="100%" xmlns="http://www.w3.org/2000/svg">
<defs><marker id="ar" markerHeight="7" markerWidth="7" orient="auto-start-reverse" refX="8" refY="5" viewBox="0 0 10 10"><path d="M2 1L8 5L2 9" fill="none" stroke="#6b6557" stroke-linecap="round" stroke-linejoin="round" stroke-width="1.5"></path></marker></defs>
<text fill="#26231d" font-family="Fraunces,serif" font-size="15" font-weight="600" text-anchor="middle" x="80" y="36">Input</text>
<text fill="#6b6557" font-family="Newsreader,serif" font-size="13" font-style="italic" text-anchor="middle" x="80" y="54">unit circle</text>
<circle cx="80" cy="130" fill="none" r="42" stroke="#534AB7" stroke-width="2"></circle>
<line stroke="#534AB7" stroke-width="2.5" x1="80" x2="122" y1="130" y2="130"></line>
<line stroke="#534AB7" stroke-width="2.5" x1="80" x2="80" y1="130" y2="88"></line>
<text fill="#9a3b1f" font-family="JetBrains Mono,monospace" font-size="15" text-anchor="middle" x="210" y="122">Vᵀ</text>
<text fill="#6b6557" font-family="Newsreader,serif" font-size="12" font-style="italic" text-anchor="middle" x="210" y="140">rotate</text>
<line marker-end="url(#ar)" stroke="#6b6557" stroke-width="1.5" x1="148" x2="262" y1="130" y2="130"></line>
<text fill="#26231d" font-family="Fraunces,serif" font-size="15" font-weight="600" text-anchor="middle" x="340" y="36">Rotated</text>
<text fill="#6b6557" font-family="Newsreader,serif" font-size="13" font-style="italic" text-anchor="middle" x="340" y="54">still a circle</text>
<circle cx="340" cy="130" fill="none" r="42" stroke="#1d7a63" stroke-width="2"></circle>
<line stroke="#1d7a63" stroke-width="2.5" x1="340" x2="370" y1="130" y2="160"></line>
<line stroke="#1d7a63" stroke-width="2.5" x1="340" x2="310" y1="130" y2="100"></line>
<text fill="#9a3b1f" font-family="JetBrains Mono,monospace" font-size="15" text-anchor="middle" x="470" y="122">Σ</text>
<text fill="#6b6557" font-family="Newsreader,serif" font-size="12" font-style="italic" text-anchor="middle" x="470" y="140">stretch</text>
<line marker-end="url(#ar)" stroke="#6b6557" stroke-width="1.5" x1="408" x2="512" y1="130" y2="130"></line>
<text fill="#26231d" font-family="Fraunces,serif" font-size="15" font-weight="600" text-anchor="middle" x="592" y="36">Stretched + U</text>
<text fill="#6b6557" font-family="Newsreader,serif" font-size="13" font-style="italic" text-anchor="middle" x="592" y="54">ellipse, rotated</text>
<ellipse cx="592" cy="130" fill="none" rx="50" ry="26" stroke="#b07d24" stroke-width="2" transform="rotate(-25 592 130)"></ellipse>
<line stroke="#b07d24" stroke-width="2.5" x1="592" x2="637" y1="130" y2="109"></line>
<line stroke="#b07d24" stroke-width="2.5" x1="592" x2="580" y1="130" y2="105"></line>
</svg>