<svg aria-label="Income contributes differently depending on join order; Shapley averages over orders" role="img" viewBox="0 0 680 250" width="100%">
<defs><marker id="ar2" markerHeight="6" markerWidth="6" orient="auto-start-reverse" refX="8" refY="5" viewBox="0 0 10 10"><path d="M2 1L8 5L2 9" fill="none" stroke="context-stroke" stroke-linecap="round" stroke-linejoin="round" stroke-width="1.5"></path></marker></defs>
<text fill="#23201b" font-family="Fraunces,serif" font-size="16" font-weight="600" x="20" y="24">Order A: income first, then debt</text>
<rect fill="#eceae4" height="44" rx="6" stroke="#888780" stroke-width="1" width="100" x="20" y="34"></rect><text fill="#444" font-family="JetBrains Mono,monospace" font-size="11" text-anchor="middle" x="70" y="54">baseline</text><text fill="#444" font-family="JetBrains Mono,monospace" font-size="11" text-anchor="middle" x="70" y="69">0.30</text>
<line marker-end="url(#ar2)" stroke="#564f44" stroke-width="1.5" x1="120" x2="160" y1="56" y2="56"></line>
<rect fill="#dcefe6" height="44" rx="6" stroke="#1d6e56" width="116" x="162" y="34"></rect><text fill="#0f5840" font-family="JetBrains Mono,monospace" font-size="11" text-anchor="middle" x="220" y="54">+income</text><text fill="#0f5840" font-family="JetBrains Mono,monospace" font-size="11" text-anchor="middle" x="220" y="69">→0.55 (+.25)</text>
<line marker-end="url(#ar2)" stroke="#564f44" stroke-width="1.5" x1="278" x2="318" y1="56" y2="56"></line>
<rect fill="#e6e3f2" height="44" rx="6" stroke="#3b3170" width="116" x="320" y="34"></rect><text fill="#3b3170" font-family="JetBrains Mono,monospace" font-size="11" text-anchor="middle" x="378" y="54">+debt</text><text fill="#3b3170" font-family="JetBrains Mono,monospace" font-size="11" text-anchor="middle" x="378" y="69">→0.80 (+.25)</text>
<text fill="#23201b" font-family="Fraunces,serif" font-size="16" font-weight="600" x="20" y="118">Order B: debt first, then income</text>
<rect fill="#eceae4" height="44" rx="6" stroke="#888780" width="100" x="20" y="128"></rect><text fill="#444" font-family="JetBrains Mono,monospace" font-size="11" text-anchor="middle" x="70" y="148">baseline</text><text fill="#444" font-family="JetBrains Mono,monospace" font-size="11" text-anchor="middle" x="70" y="163">0.30</text>
<line marker-end="url(#ar2)" stroke="#564f44" stroke-width="1.5" x1="120" x2="160" y1="150" y2="150"></line>
<rect fill="#e6e3f2" height="44" rx="6" stroke="#3b3170" width="116" x="162" y="128"></rect><text fill="#3b3170" font-family="JetBrains Mono,monospace" font-size="11" text-anchor="middle" x="220" y="148">+debt</text><text fill="#3b3170" font-family="JetBrains Mono,monospace" font-size="11" text-anchor="middle" x="220" y="163">→0.40 (+.10)</text>
<line marker-end="url(#ar2)" stroke="#564f44" stroke-width="1.5" x1="278" x2="318" y1="150" y2="150"></line>
<rect fill="#dcefe6" height="44" rx="6" stroke="#1d6e56" width="116" x="320" y="128"></rect><text fill="#0f5840" font-family="JetBrains Mono,monospace" font-size="11" text-anchor="middle" x="378" y="148">+income</text><text fill="#0f5840" font-family="JetBrains Mono,monospace" font-size="11" text-anchor="middle" x="378" y="163">→0.80 (+.40)</text>
<rect fill="#dcefe6" height="60" rx="6" stroke="#1d6e56" width="190" x="470" y="40"></rect><text fill="#0f5840" font-family="Fraunces,serif" font-size="14" font-weight="600" text-anchor="middle" x="565" y="64">income φ</text><text fill="#0f5840" font-family="JetBrains Mono,monospace" font-size="11" text-anchor="middle" x="565" y="84">avg(.25,.40)=.325</text>
<rect fill="#e6e3f2" height="60" rx="6" stroke="#3b3170" width="190" x="470" y="120"></rect><text fill="#3b3170" font-family="Fraunces,serif" font-size="14" font-weight="600" text-anchor="middle" x="565" y="144">debt φ</text><text fill="#3b3170" font-family="JetBrains Mono,monospace" font-size="11" text-anchor="middle" x="565" y="164">avg(.25,.10)=.175</text>
<rect fill="#faf3df" height="38" rx="6" stroke="#9a6a18" width="640" x="20" y="200"></rect><text fill="#7a5212" font-family="JetBrains Mono,monospace" font-size="12" text-anchor="middle" x="340" y="224">additivity: .325 + .175 = .50 = prediction 0.80 − baseline 0.30 ✓</text>
</svg>