<svg viewBox="0 0 560 260" xmlns="http://www.w3.org/2000/svg">
<!-- axis -->
<line stroke="#2a2f3a" x1="60" x2="60" y1="20" y2="220"></line>
<text fill="#9aa3b2" font-family="sans-serif" font-size="11" transform="rotate(-90 28,120)" x="20" y="120">merge height</text>
<!-- leaves at y=220 -->
<g fill="none" stroke="#5fb6c9" stroke-width="2">
<!-- A,B merge low -->
<path d="M100,220 L100,180 L150,180 L150,220"></path>
<!-- C,D merge low -->
<path d="M210,220 L210,165 L260,165 L260,220"></path>
<!-- (AB),(CD) merge mid -->
<path d="M125,180 L125,120 L235,120 L235,165"></path>
<!-- E,F merge low -->
<path d="M360,220 L360,175 L410,175 L410,220"></path>
<!-- top merge high -->
<path d="M180,120 L180,55 L385,55 L385,175"></path>
</g>
<!-- cut line -->
<line stroke="#eb6f6f" stroke-dasharray="5 4" x1="60" x2="520" y1="88" y2="88"></line>
<text fill="#eb6f6f" font-family="sans-serif" font-size="11" x="470" y="82">cut → 3 clusters</text>
<!-- labels -->
<g fill="#e7e9ee" font-family="sans-serif" font-size="12" text-anchor="middle">
<text x="100" y="238">A</text><text x="150" y="238">B</text>
<text x="210" y="238">C</text><text x="260" y="238">D</text>
<text x="360" y="238">E</text><text x="410" y="238">F</text>
</g>
<text fill="#9aa3b2" font-family="sans-serif" font-size="10.5" text-anchor="middle" x="290" y="252">cut in the largest vertical gap → respects natural separation</text>
</svg>